<mxfile host="Electron" modified="2024-06-01T05:24:43.812Z" agent="Mozilla/5.0 (Windows NT 10.0; Win64; x64) AppleWebKit/537.36 (KHTML, like Gecko) draw.io/24.4.13 Chrome/124.0.6367.207 Electron/30.0.6 Safari/537.36" etag="Avs07uq-INmiUsQcS6Gj" version="24.4.13" type="device">
  <diagram name="Page-1" id="p3gzTvM-7l3DDRHW7Woc">
    <mxGraphModel dx="600" dy="355" grid="1" gridSize="10" guides="1" tooltips="1" connect="1" arrows="1" fold="1" page="1" pageScale="1" pageWidth="850" pageHeight="1100" math="0" shadow="0">
      <root>
        <mxCell id="0" />
        <mxCell id="1" parent="0" />
        <mxCell id="vbVfio-ikI-QH2Pf9PGL-1" value="MPGcalculator" style="swimlane;fontSize=14;startSize=23;" parent="1" vertex="1">
          <mxGeometry x="290" y="140" width="200" height="95" as="geometry" />
        </mxCell>
        <mxCell id="vbVfio-ikI-QH2Pf9PGL-2" value="&lt;div&gt;+ MPGcalculator()&lt;br&gt;&lt;/div&gt;&lt;div&gt;+ start(stage: Stage): void&lt;/div&gt;&lt;div&gt;+ main(String[] args): void&lt;/div&gt;" style="text;html=1;align=left;verticalAlign=middle;resizable=0;points=[];autosize=1;strokeColor=none;fillColor=none;fontSize=15;" parent="vbVfio-ikI-QH2Pf9PGL-1" vertex="1">
          <mxGeometry y="25" width="200" height="70" as="geometry" />
        </mxCell>
        <mxCell id="0-SusGgwiV9ViigYZbwq-1" value="MPGcalculatorController" style="swimlane;fontSize=14;startSize=23;" vertex="1" parent="1">
          <mxGeometry x="520" y="127.5" width="210" height="120" as="geometry" />
        </mxCell>
        <mxCell id="0-SusGgwiV9ViigYZbwq-2" value="&lt;div&gt;- gallonsTextField: TextField&lt;/div&gt;&lt;div&gt;- milesTextField: TextField&lt;/div&gt;&lt;div&gt;- mpgTextField: TextField&lt;/div&gt;" style="text;html=1;align=left;verticalAlign=middle;resizable=0;points=[];autosize=1;strokeColor=none;fillColor=none;fontSize=15;" vertex="1" parent="0-SusGgwiV9ViigYZbwq-1">
          <mxGeometry y="25" width="210" height="70" as="geometry" />
        </mxCell>
        <mxCell id="0-SusGgwiV9ViigYZbwq-3" value="" style="endArrow=none;html=1;rounded=0;" edge="1" parent="0-SusGgwiV9ViigYZbwq-1">
          <mxGeometry width="50" height="50" relative="1" as="geometry">
            <mxPoint y="90" as="sourcePoint" />
            <mxPoint x="210" y="90" as="targetPoint" />
          </mxGeometry>
        </mxCell>
        <mxCell id="0-SusGgwiV9ViigYZbwq-4" value="+ initialize(): void" style="text;html=1;align=left;verticalAlign=middle;resizable=0;points=[];autosize=1;strokeColor=none;fillColor=none;fontSize=15;" vertex="1" parent="0-SusGgwiV9ViigYZbwq-1">
          <mxGeometry y="90" width="140" height="30" as="geometry" />
        </mxCell>
      </root>
    </mxGraphModel>
  </diagram>
</mxfile>
